<?xml version="1.0" standalone="no"?>
<!DOCTYPE svg PUBLIC "-//W3C//DTD SVG 20010904//EN"
 "http://www.w3.org/TR/2001/REC-SVG-20010904/DTD/svg10.dtd">
<svg version="1.0" xmlns="http://www.w3.org/2000/svg"
 width="260.000000pt" height="260.000000pt" viewBox="0 0 260.000000 260.000000"
 preserveAspectRatio="xMidYMid meet">
<metadata>
Created by potrace 1.14, written by Peter Selinger 2001-2017
</metadata>
<g transform="translate(0.000000,260.000000) scale(0.100000,-0.100000)"
fill="#000000" stroke="none">
<path d="M1600 2478 c-12 -8 -11 -9 4 -4 16 6 17 4 6 -9 -10 -12 -10 -15 3
-15 10 0 14 -6 11 -15 -4 -8 1 -17 10 -21 9 -3 13 -10 10 -15 -3 -5 0 -9 6 -9
6 0 9 -4 6 -8 -3 -5 2 -18 12 -28 9 -10 24 -32 32 -49 8 -16 18 -32 21 -35 11
-8 69 -127 69 -140 0 -8 8 -22 18 -33 12 -15 13 -18 2 -12 -13 8 -13 7 -1 -9
13 -16 17 -28 23 -73 1 -7 5 -13 9 -13 9 0 19 -35 25 -83 2 -21 11 -48 19 -61
8 -12 12 -26 8 -29 -3 -4 -1 -7 5 -7 7 0 12 -7 12 -16 0 -10 6 -14 15 -10 8 3
15 0 15 -6 0 -6 6 -5 17 3 14 12 15 12 9 1 -7 -12 -4 -12 15 -2 18 10 24 10
27 1 3 -9 7 -9 17 -1 10 8 19 8 34 1 13 -7 22 -8 26 -1 4 7 12 7 25 0 10 -6
21 -6 24 -2 3 5 59 8 125 7 67 0 121 3 121 8 0 4 4 6 8 3 4 -2 9 4 9 15 1 10
-3 19 -9 19 -6 0 -5 7 3 17 9 10 9 14 2 10 -13 -8 -37 26 -26 37 3 3 1 6 -5 6
-6 0 -18 13 -27 30 -8 16 -26 40 -40 54 -14 14 -25 29 -25 33 0 5 -18 26 -40
48 -21 22 -39 46 -40 53 0 7 -4 10 -10 7 -6 -3 -10 -2 -10 4 0 10 -47 61 -56
61 -2 0 -18 14 -34 30 -16 17 -34 30 -40 30 -5 0 -10 3 -10 8 0 8 -51 39 -63
38 -5 -1 -13 7 -18 17 -6 9 -17 17 -24 17 -8 0 -15 5 -15 10 0 6 -7 10 -15 10
-9 0 -18 7 -21 15 -4 8 -10 13 -14 10 -4 -3 -20 5 -36 17 -15 13 -25 18 -21
12 3 -6 0 -11 -8 -11 -8 0 -14 3 -13 6 2 18 -3 33 -9 28 -3 -4 -13 -1 -21 6
-13 9 -14 9 -8 0 4 -7 -17 -1 -46 14 -29 15 -55 28 -58 28 -3 0 -10 3 -15 7
-6 4 -17 2 -25 -4z"/>
<path d="M907 2467 c-1 -4 -12 -9 -24 -10 -12 0 -19 -5 -17 -9 3 -5 -9 -11
-26 -15 -18 -3 -34 -12 -37 -19 -3 -8 -9 -12 -13 -9 -4 3 -19 -4 -32 -15 -14
-11 -28 -17 -31 -13 -4 3 -9 -2 -13 -11 -3 -9 -10 -13 -15 -11 -4 3 -17 -3
-29 -15 -11 -11 -22 -20 -25 -20 -6 0 -49 -35 -82 -67 -13 -13 -28 -23 -32
-23 -5 0 -19 -13 -32 -30 -13 -16 -28 -30 -32 -30 -16 0 -123 -117 -119 -130
3 -7 1 -10 -4 -7 -5 2 -15 -1 -22 -9 -7 -8 -9 -14 -5 -14 4 0 3 -4 -2 -8 -17
-12 -96 -122 -88 -122 4 0 -1 -6 -10 -12 -9 -7 -20 -28 -23 -45 -7 -37 -16
-34 109 -36 37 0 67 -5 67 -9 0 -5 9 -4 20 2 15 8 20 8 20 -2 0 -10 2 -10 9 1
6 9 11 10 15 2 4 -6 13 -8 19 -4 18 11 36 12 43 2 3 -5 11 -6 17 -2 19 12 57
11 57 -1 0 -6 5 -4 10 4 8 12 10 12 10 1 0 -11 3 -11 17 0 14 12 16 12 8 0 -6
-11 -4 -13 11 -7 10 4 27 9 38 12 10 2 19 5 20 6 17 36 22 68 12 79 -8 9 -8
10 2 5 11 -7 17 10 13 42 -1 6 2 12 7 12 8 0 13 11 27 63 2 4 3 12 4 18 0 5 5
7 11 4 6 -3 7 1 4 10 -4 8 -1 22 6 30 7 8 9 15 5 15 -4 0 -2 6 4 13 6 8 8 17
4 20 -3 4 -1 7 5 7 7 0 11 3 10 8 -1 4 3 17 10 28 6 12 8 24 5 28 -3 3 2 6 13
6 16 0 17 2 4 10 -10 6 -11 10 -2 10 6 0 12 7 12 15 0 8 5 15 11 15 6 0 9 7 5
15 -3 8 -1 15 4 15 6 0 9 3 8 8 -2 12 14 42 21 38 4 -3 8 5 8 17 1 12 9 27 17
33 9 6 13 14 9 17 -3 4 -1 7 5 7 6 0 9 7 6 15 -4 8 -1 15 6 15 6 0 8 5 5 10
-3 6 2 10 11 10 10 0 14 3 11 7 -4 3 0 14 8 23 13 15 11 16 -25 16 -22 0 -41
-4 -43 -9z"/>
<path d="M1328 2464 c-2 -1 -19 -6 -38 -9 -19 -3 -36 -10 -38 -14 -2 -5 -12
-7 -22 -4 -11 3 -20 0 -20 -6 0 -6 -6 -11 -13 -11 -7 0 -19 -9 -27 -20 -8 -11
-20 -20 -27 -20 -7 0 -13 -4 -13 -9 0 -4 -12 -20 -26 -35 -15 -14 -24 -26 -21
-26 3 0 -5 -12 -18 -26 -14 -15 -22 -30 -19 -35 3 -5 -2 -9 -11 -9 -9 0 -14
-4 -10 -9 3 -5 -2 -17 -11 -25 -8 -9 -13 -16 -9 -16 3 0 -2 -12 -13 -27 -19
-29 -33 -60 -29 -67 1 -2 -7 -13 -17 -25 -11 -12 -16 -21 -12 -21 3 0 0 -15
-8 -34 -8 -19 -12 -37 -8 -40 3 -3 0 -6 -7 -6 -7 0 -9 -4 -6 -10 3 -5 2 -10
-2 -10 -5 0 -9 -10 -10 -22 -1 -11 -8 -25 -15 -29 -10 -7 -10 -9 1 -9 11 0 11
-3 1 -15 -7 -8 -10 -15 -7 -15 3 0 1 -16 -3 -35 -9 -39 -16 -36 92 -39 31 -1
60 -5 64 -9 4 -4 14 -2 21 5 11 9 16 9 23 -1 5 -8 13 -10 21 -5 19 11 49 13
49 2 0 -5 5 -6 12 -2 16 10 68 11 68 1 0 -5 5 -5 11 -1 17 10 79 12 79 2 0 -4
5 -8 11 -8 5 0 8 3 6 8 -3 4 6 8 19 8 13 1 24 -2 24 -7 0 -6 9 -5 20 1 15 8
20 8 20 -2 0 -9 3 -9 12 0 15 15 32 16 22 1 -4 -7 1 -7 15 1 17 8 26 8 36 0 7
-6 16 -7 18 -3 6 10 68 10 84 0 6 -4 13 -2 15 4 2 7 12 7 29 0 19 -7 30 -6 38
2 8 8 11 7 11 -4 0 -12 2 -12 10 1 6 10 10 11 10 3 0 -7 5 -13 11 -13 5 0 7 5
4 10 -3 6 -1 10 5 10 6 0 9 4 5 9 -3 5 -1 13 5 16 7 4 8 11 1 18 -5 7 -11 21
-13 32 -1 11 -6 22 -10 26 -4 3 -9 20 -11 39 -3 19 -9 36 -15 38 -6 2 -8 10
-5 18 3 8 0 14 -7 14 -6 0 -9 4 -5 9 3 5 1 12 -4 16 -6 3 -7 13 -4 22 4 11 3
14 -5 9 -11 -6 -17 12 -13 37 0 4 -3 7 -8 7 -8 0 -24 37 -22 53 1 4 -4 7 -10
7 -5 0 -7 5 -4 10 3 6 2 10 -4 10 -5 0 -15 16 -22 35 -7 19 -17 35 -23 35 -5
0 -7 3 -3 6 6 6 -2 17 -40 59 -13 13 -23 28 -23 32 0 4 -19 25 -42 47 -24 22
-37 36 -29 31 10 -6 12 -4 7 4 -5 7 -11 10 -14 7 -3 -3 -12 0 -21 8 -16 13
-57 27 -63 20z"/>
<path d="M157 1642 c-10 -2 -14 -8 -10 -15 4 -7 -2 -5 -12 3 -11 9 -16 10 -11
2 4 -7 1 -15 -8 -18 -9 -3 -16 -10 -16 -16 0 -5 6 -6 13 -2 9 6 9 4 1 -7 -6
-8 -10 -32 -9 -54 1 -22 -3 -46 -8 -52 -6 -8 -6 -13 1 -13 9 0 9 -22 -3 -107
-2 -21 1 -33 8 -33 7 0 6 -4 -3 -10 -12 -8 -12 -10 -1 -10 10 0 11 -3 2 -14
-13 -16 -11 -37 4 -48 6 -5 5 -8 -2 -8 -7 0 -13 -5 -13 -11 0 -5 4 -7 10 -4 6
4 7 -2 1 -17 -5 -15 -5 -31 0 -41 7 -11 6 -17 0 -17 -7 0 -7 -8 -1 -26 6 -16
7 -32 0 -43 -5 -10 -5 -22 0 -27 5 -5 10 -22 12 -39 2 -16 8 -30 13 -30 6 0
15 -4 22 -8 6 -4 14 -3 18 2 4 7 15 7 32 0 18 -6 30 -6 39 2 8 6 14 8 14 3 0
-7 310 -11 403 -5 18 1 19 21 2 33 -6 5 -5 8 3 8 9 0 10 5 3 18 -7 13 -6 23 2
32 9 10 9 14 -1 17 -10 4 -10 8 0 21 11 13 11 14 -2 7 -13 -8 -13 -7 -1 8 7 9
9 17 4 17 -11 0 -11 36 0 46 10 10 9 26 -1 20 -11 -6 -9 206 2 223 6 10 5 12
-2 7 -7 -4 -12 -3 -12 3 0 5 5 13 11 17 8 4 7 9 -2 15 -12 7 -11 9 0 9 11 0
12 3 3 12 -7 7 -8 17 -3 27 11 20 11 30 -1 60 -8 22 -7 23 8 10 16 -13 16 -12
6 7 -6 12 -9 23 -7 26 3 2 -19 5 -47 7 -28 1 -55 4 -59 7 -4 2 -10 -2 -12 -8
-3 -7 -6 -8 -6 -2 -1 5 -14 9 -31 8 -17 -1 -30 3 -30 9 0 8 -3 8 -8 2 -10 -14
-56 -15 -64 -1 -5 7 -8 7 -8 0 0 -12 -29 -12 -48 0 -6 4 -12 2 -12 -3 0 -11
-35 -10 -46 2 -4 4 -16 -1 -27 -10 -11 -10 -17 -13 -14 -7 4 7 -2 14 -13 17
-11 3 -17 1 -14 -4 5 -9 -23 -8 -41 2 -5 3 -18 4 -28 1z"/>
<path d="M885 1634 c-7 -8 -17 -9 -28 -2 -16 8 -23 -5 -18 -34 0 -5 -3 -8 -8
-8 -4 0 -7 -12 -5 -27 1 -15 -2 -35 -7 -44 -5 -11 -5 -20 0 -23 10 -7 9 -25
-2 -43 -5 -8 -3 -13 3 -13 6 0 8 -5 3 -12 -11 -19 -12 -38 -2 -38 6 0 5 -9 -2
-21 -8 -16 -8 -20 1 -14 9 6 9 3 1 -12 -7 -14 -7 -24 2 -33 7 -7 7 -10 1 -7
-13 7 -13 -91 0 -112 6 -9 5 -12 -1 -8 -7 4 -10 -5 -9 -23 0 -17 5 -30 11 -30
5 0 3 -5 -5 -10 -8 -5 -10 -10 -4 -10 7 0 12 -10 13 -22 2 -87 7 -107 24 -112
10 -2 14 0 10 6 -4 7 -1 8 8 2 8 -5 211 -9 451 -9 359 -1 435 2 426 12 -8 10
-7 12 6 7 13 -5 15 0 12 25 -2 16 2 33 8 36 8 3 7 7 -1 11 -10 4 -9 9 3 21 13
13 13 18 2 24 -11 7 -10 11 2 20 11 8 12 12 3 16 -9 3 -10 10 -4 21 5 9 5 26
1 37 -4 11 -3 28 2 39 7 13 6 21 -3 27 -10 6 -10 11 0 22 9 11 9 17 0 22 -8 6
-7 10 2 17 11 7 11 11 2 15 -10 3 -10 10 -2 25 8 16 8 19 -1 13 -9 -6 -9 -2
-1 14 8 14 8 21 1 21 -7 0 -7 7 1 21 8 16 8 23 -1 29 -9 5 -9 13 -2 27 9 15 7
25 -5 43 -9 13 -11 20 -5 16 7 -4 12 -2 12 3 0 6 -4 11 -8 11 -4 0 -8 12 -8
28 1 22 -4 27 -23 28 -13 1 -27 8 -32 15 -7 12 -9 12 -9 0 0 -9 -4 -10 -12 -5
-16 11 -39 11 -55 1 -8 -5 -13 -3 -13 4 0 7 -5 8 -12 3 -16 -11 -39 -11 -55
-1 -8 5 -13 3 -13 -4 0 -8 -4 -8 -15 1 -12 10 -15 10 -15 0 0 -10 -3 -10 -15
0 -12 10 -15 10 -15 0 0 -10 -3 -10 -15 0 -12 10 -15 10 -15 0 0 -9 -3 -10
-13 -1 -10 8 -17 7 -25 -1 -9 -9 -12 -9 -12 1 0 10 -3 11 -14 2 -10 -9 -16 -9
-21 -1 -5 8 -11 8 -21 -1 -11 -9 -14 -9 -14 1 0 10 -3 10 -15 0 -12 -10 -15
-10 -15 0 0 10 -3 10 -14 1 -11 -9 -15 -9 -19 1 -4 10 -6 10 -6 -1 -1 -10 -4
-11 -15 -2 -11 9 -16 9 -21 0 -6 -8 -10 -7 -16 2 -7 12 -9 12 -9 0 0 -10 -3
-11 -14 -2 -11 9 -16 9 -21 0 -6 -8 -10 -7 -16 2 -7 12 -9 12 -9 0 0 -11 -3
-11 -15 -1 -12 10 -15 10 -15 0 0 -9 -3 -10 -13 -1 -10 8 -17 7 -25 -1 -9 -9
-12 -9 -12 1 0 10 -3 11 -14 2 -11 -9 -15 -9 -19 1 -4 10 -6 10 -6 -1 -1 -11
-4 -11 -16 -1 -11 9 -15 9 -15 1 0 -7 -5 -9 -12 -5 -20 12 -80 11 -93 -2z"/>
<path d="M1938 1630 c-12 -13 -13 -20 -5 -24 8 -4 9 -8 1 -11 -7 -4 -8 -22 -4
-50 4 -24 6 -56 4 -70 -1 -14 2 -25 8 -25 6 0 5 -6 -3 -16 -7 -9 -9 -18 -3
-22 12 -9 14 -42 2 -42 -5 0 -6 -5 -2 -11 10 -17 12 -81 2 -101 -5 -10 -4 -19
2 -23 5 -3 10 -11 10 -16 0 -6 -4 -8 -8 -5 -4 2 -8 -4 -8 -15 0 -10 4 -19 9
-19 5 0 4 -7 -3 -15 -7 -8 -9 -15 -5 -15 4 0 2 -7 -5 -15 -11 -13 -10 -14 2
-10 9 4 15 0 15 -9 0 -8 -3 -13 -7 -11 -4 2 -7 -23 -6 -55 0 -55 5 -65 29 -61
4 0 7 -2 7 -6 0 -5 109 -8 242 -8 219 0 244 1 260 17 12 12 14 18 6 18 -10 0
-10 2 -1 8 7 4 12 16 12 27 1 99 9 213 15 223 4 7 2 12 -4 12 -6 0 -8 5 -4 12
11 17 10 98 0 98 -6 0 -5 5 2 12 7 7 8 17 2 29 -7 11 -7 20 0 24 7 4 7 12 0
25 -7 13 -7 21 0 25 5 3 10 11 10 16 0 6 -4 8 -8 5 -5 -3 -10 11 -11 32 -1 20
-3 42 -3 48 -2 13 -10 14 -83 17 -30 1 -55 6 -55 12 0 5 -5 4 -11 -2 -7 -7
-21 -8 -40 -3 -19 6 -29 5 -29 -2 0 -6 -6 -6 -15 2 -8 7 -15 9 -15 4 0 -5 -5
-2 -10 6 -6 9 -10 10 -10 3 0 -15 -62 -14 -72 1 -5 8 -8 7 -8 -2 0 -10 -5 -10
-21 -1 -16 8 -20 8 -14 -1 6 -9 2 -9 -14 -1 -16 9 -21 9 -21 0 0 -8 -4 -8 -15
1 -12 10 -15 10 -15 0 0 -10 -3 -10 -15 0 -12 10 -15 10 -15 0 0 -10 -3 -10
-15 0 -12 10 -15 10 -15 0 0 -9 -3 -10 -13 -2 -10 9 -17 6 -29 -8z"/>
<path d="M1930 820 c-6 -8 -8 -9 -4 -2 5 11 2 12 -15 2 -12 -6 -19 -15 -16
-21 4 -5 1 -9 -5 -9 -6 0 -8 -5 -5 -10 4 -6 1 -18 -7 -27 -11 -14 -11 -16 2
-8 12 6 13 5 3 -6 -7 -7 -13 -25 -13 -40 0 -15 -5 -31 -10 -34 -6 -4 -8 -10
-5 -15 3 -5 1 -11 -5 -15 -6 -4 -8 -10 -5 -15 3 -5 1 -11 -5 -15 -6 -4 -8 -11
-5 -16 4 -5 2 -9 -3 -9 -5 0 -9 -7 -10 -15 -1 -8 -3 -22 -4 -30 -1 -8 -6 -15
-11 -15 -5 0 -3 -8 4 -17 7 -10 10 -15 5 -11 -9 8 -36 -13 -30 -24 2 -4 -7
-27 -20 -51 -14 -24 -22 -47 -19 -51 4 -3 1 -6 -5 -6 -7 0 -12 -3 -11 -7 2
-16 -14 -53 -20 -48 -4 2 -17 -18 -29 -46 -15 -33 -26 -48 -35 -43 -6 4 -9 4
-5 0 4 -5 -2 -24 -12 -44 -11 -20 -19 -37 -17 -38 1 -1 17 -4 35 -7 21 -4 30
-2 25 6 -4 6 0 8 10 4 9 -3 22 0 29 7 7 7 18 11 25 9 6 -2 21 6 34 19 12 13
18 16 14 9 -5 -8 7 -4 26 10 19 13 36 24 39 24 13 2 69 42 65 47 -3 3 1 8 10
12 10 4 14 2 9 -5 -4 -7 7 -1 24 11 17 13 28 28 25 33 -3 6 -1 7 5 3 6 -3 27
9 47 28 20 19 39 36 43 38 4 2 6 6 4 11 -1 4 2 7 7 7 5 0 35 25 66 55 30 30
53 55 51 55 -3 0 7 13 22 28 15 15 32 26 37 23 6 -2 7 0 2 4 -4 5 5 21 20 37
15 15 23 28 18 28 -5 0 1 7 13 16 12 8 19 20 16 26 -5 8 -1 9 10 5 9 -4 15 -3
11 2 -3 5 2 16 10 24 8 9 15 20 15 26 0 6 5 11 11 11 5 0 8 4 5 9 -4 5 0 12 6
14 10 4 10 6 0 6 -10 1 -10 6 -1 22 7 13 7 19 1 15 -6 -3 -14 -1 -17 5 -4 6
-18 8 -31 5 -13 -4 -24 -3 -24 1 0 5 -26 8 -58 8 -31 0 -65 4 -76 8 -13 6 -16
6 -12 -2 10 -15 -7 -14 -22 1 -9 9 -12 8 -12 -7 0 -18 0 -18 -15 1 -11 14 -14
15 -15 4 0 -12 -2 -13 -9 -1 -6 9 -11 10 -15 2 -5 -7 -15 -7 -31 -1 -17 6 -25
6 -25 -1 0 -6 -5 -7 -11 -4 -21 14 -87 10 -99 -5z"/>
<path d="M1196 822 c-4 -4 -62 -8 -129 -8 -207 -2 -193 0 -193 -31 1 -16 5
-34 10 -42 7 -10 5 -12 -5 -6 -11 6 -12 5 -1 -6 6 -7 12 -22 12 -34 0 -12 6
-30 14 -40 8 -11 12 -25 9 -32 -3 -7 0 -13 6 -13 6 0 11 -8 11 -17 0 -9 8 -25
18 -36 9 -11 11 -17 4 -13 -10 6 -10 2 -1 -18 7 -14 17 -23 22 -19 6 4 8 0 4
-10 -3 -10 -2 -17 3 -17 5 0 7 -7 4 -15 -4 -8 -1 -15 6 -15 6 0 8 -4 5 -10 -3
-5 -2 -10 3 -10 10 0 37 -50 33 -63 -1 -5 3 -6 8 -3 5 4 12 -2 16 -13 5 -16
16 -32 55 -79 6 -6 8 -12 5 -12 -3 0 0 -6 7 -14 7 -8 16 -12 21 -9 4 2 7 -3 7
-12 0 -9 4 -14 9 -11 5 3 11 -1 15 -9 3 -8 12 -15 21 -15 8 0 15 -5 15 -11 0
-5 4 -8 9 -4 5 3 12 1 15 -4 4 -5 17 -8 31 -6 14 1 28 -2 31 -6 3 -5 13 -5 22
0 9 4 23 6 30 4 7 -3 20 3 28 13 9 11 13 12 9 4 -4 -8 5 -2 19 13 14 15 26 25
26 22 0 -4 16 10 35 29 19 20 35 40 35 44 0 4 13 19 30 34 16 14 26 28 23 32
-4 3 -1 6 6 6 7 0 9 4 6 10 -3 6 -3 10 2 10 12 0 44 60 37 71 -3 5 0 8 8 7 7
-2 12 3 10 10 -1 6 3 12 9 12 5 0 7 5 4 10 -3 6 -1 10 4 10 6 0 11 7 11 15 0
8 4 15 9 15 4 0 7 11 6 25 -2 14 1 25 6 25 6 0 8 4 4 9 -3 5 0 13 6 16 5 4 8
12 6 19 -3 6 1 20 9 30 7 11 11 23 8 27 -3 5 0 9 5 9 6 0 10 3 10 8 -1 4 0 9
1 12 1 3 4 24 5 48 4 51 0 54 -88 56 -34 1 -67 5 -74 9 -6 4 -13 2 -15 -4 -3
-9 -10 -9 -27 1 -13 6 -21 8 -18 2 7 -10 -85 -8 -102 3 -6 3 -11 1 -11 -4 0
-12 -27 -10 -47 2 -7 5 -13 4 -13 -1 0 -10 -100 -10 -116 1 -6 3 -14 3 -18 -1z"/>
<path d="M202 804 c-7 -8 -7 -15 1 -24 9 -10 9 -11 -3 -5 -12 7 -13 6 -3 -7 7
-8 10 -18 6 -21 -3 -4 2 -9 11 -13 9 -3 13 -10 10 -15 -3 -5 2 -12 10 -15 9
-3 16 -11 16 -16 0 -6 14 -24 30 -40 17 -15 30 -31 30 -34 0 -2 9 -14 20 -26
10 -12 17 -26 13 -31 -3 -6 -1 -7 6 -3 7 4 15 -2 20 -16 6 -13 10 -19 10 -15
1 12 31 -20 31 -33 0 -6 5 -8 10 -5 9 6 14 -8 11 -27 0 -5 8 -8 20 -8 11 0 18
-4 15 -8 -6 -10 39 -52 55 -52 5 0 7 -4 4 -10 -3 -6 0 -10 7 -10 7 0 22 -11
32 -25 10 -13 22 -22 27 -19 5 3 9 0 9 -5 0 -6 7 -11 16 -11 8 0 12 -4 9 -10
-3 -5 1 -10 10 -10 8 0 18 -7 22 -16 3 -8 12 -13 20 -10 8 3 12 2 8 -3 -3 -5
13 -17 35 -27 22 -10 40 -22 40 -27 0 -4 5 -5 10 -2 6 3 10 1 10 -5 0 -7 7 -9
16 -6 8 3 12 2 9 -3 -5 -9 32 -27 48 -23 5 1 6 -2 3 -7 -7 -11 22 -23 36 -14
7 3 8 1 4 -5 -6 -11 12 -17 37 -13 4 0 7 -4 7 -11 0 -6 8 -3 20 7 18 16 19 42
1 31 -4 -3 -8 1 -8 9 0 8 5 11 11 8 9 -6 -8 21 -24 37 -24 24 -43 52 -30 45 8
-4 5 2 -8 14 -12 12 -20 26 -18 30 3 4 -4 14 -15 21 -10 8 -19 22 -19 32 0 10
-4 18 -10 18 -5 0 -10 9 -10 20 0 11 -4 20 -10 20 -5 0 -10 9 -10 20 0 11 -4
20 -8 20 -4 0 -8 10 -9 22 -1 11 -8 25 -15 29 -7 4 -9 11 -5 15 4 4 1 14 -5
22 -7 7 -13 23 -15 35 -2 11 -9 27 -16 36 -9 12 -9 13 1 7 6 -4 12 -2 12 3 0
6 -5 11 -11 11 -5 0 -8 4 -4 9 3 5 1 12 -5 16 -6 4 -8 11 -5 16 4 5 2 9 -2 9
-5 0 -9 10 -10 23 -1 12 -7 41 -14 65 -10 38 -15 42 -43 43 -17 0 -69 1 -116
2 -49 2 -88 -2 -92 -8 -5 -6 -8 -5 -8 4 0 11 -3 11 -15 1 -8 -7 -15 -8 -15 -3
0 12 -73 11 -82 -2 -5 -6 -8 -5 -8 4 0 11 -3 11 -15 1 -8 -7 -15 -8 -15 -4 0
13 -75 11 -88 -2z"/>
<path d="M965 121 c-3 -5 0 -13 6 -17 7 -4 9 -3 5 4 -3 5 0 13 6 15 9 4 10 6
1 6 -6 1 -14 -3 -18 -8z"/>
</g>
</svg>
